<?xml version="1.0" encoding="utf-8"?>
<!-- Generator: Adobe Illustrator 24.0.2, SVG Export Plug-In . SVG Version: 6.00 Build 0)  -->
<svg version="1.1" id="Capa_1" xmlns="http://www.w3.org/2000/svg" xmlns:xlink="http://www.w3.org/1999/xlink" x="0px" y="0px"
	 viewBox="0 0 512 512" style="enable-background:new 0 0 512 512;" xml:space="preserve">
<style type="text/css">
	.st0{fill:#910A2D;}
	.st1{fill:#F5F5F5;}
	.st2{fill:#999999;}
	.st3{fill:#E7E7E7;}
	.st4{fill:#292D31;}
	.st5{fill:#FEE8B4;}
	.st6{fill:#B70A2D;}
	.st7{fill:#AAC7F0;}
	.st8{fill:#FFFFFF;}
	.st9{fill:#E05A7F;}
</style>
<g id="Page-1">
	<g id="_x30_49---Road-Trip-Route" transform="translate(-1)">
		<path id="Shape" class="st0" d="M288.3,65.1H331c4.7,0,8.5,3.8,8.5,8.5v7.1c0,4.7-3.8,8.5-8.5,8.5h-42.7V65.1z"/>
		<path id="Shape_1_" class="st1" d="M191.7,265h42.7c4.7,0,8.5,3.8,8.5,8.5v17.1c0,4.7-3.8,8.5-8.5,8.5h-42.7V265z"/>
		<path id="Shape_3_" class="st2" d="M288.1,167.7c-4.7,0-8.5-3.8-8.5-8.5V62.8c0-4.7,3.8-8.5,8.5-8.5c4.7,0,8.5,3.8,8.5,8.5v96.3
			C296.7,163.8,292.9,167.7,288.1,167.7z"/>
		<path id="Shape_7_" class="st1" d="M504.5,110.9v34.1c0,9.4-7.6,17.1-17.1,17.1h-25.6c-14.1,0-25.6,11.5-25.6,25.6v142.3
			c0.6,49.1-36.1,90.6-84.8,96.2c-26.3,2.5-52.5-6.2-72.1-24c-19.6-17.8-30.8-43-30.8-69.5V180.2c0.2-12.5-8.3-23.4-20.5-26.1
			c-7.5-1.5-15.4,0.4-21.3,5.3c-6,4.9-9.4,12.1-9.4,19.8v170.7c0,26.5-11.2,51.7-30.8,69.5c-19.6,17.8-45.8,26.5-72.1,24
			C45.6,437.7,9,396.2,9.5,347.1v-48.5c0-9.4,7.6-17.1,17.1-17.1h34.1c9.4,0,17.1,7.6,17.1,17.1v50.2c-0.2,12.5,8.3,23.4,20.5,26.1
			c7.5,1.5,15.4-0.4,21.3-5.3c6-4.9,9.4-12.1,9.4-19.8V181.9c-0.6-49.1,36.1-90.6,84.8-96.2c26.3-2.5,52.5,6.2,72.1,24
			s30.8,43,30.8,69.5v152.6c-0.2,12.5,8.3,23.4,20.5,26.1c7.5,1.5,15.4-0.4,21.3-5.3c6-4.9,9.4-12.1,9.4-19.8V187.7
			c0-51.8,42-93.9,93.9-93.9h25.6C496.8,93.9,504.5,101.5,504.5,110.9L504.5,110.9z"/>
		<g>
			<path id="Shape_8_" class="st3" d="M445.9,138.7c-4.3,0-7.9-3.2-8.5-7.4c-0.6-4.2,2.1-8.2,6.2-9.4c5.9-1.6,12-2.4,18.2-2.4h8.5
				c4.7,0,8.5,3.8,8.5,8.5s-3.8,8.5-8.5,8.5h-8.5c-4.6,0-9.2,0.6-13.7,1.8C447.4,138.6,446.6,138.7,445.9,138.7L445.9,138.7z"/>
			<path id="Shape_9_" class="st3" d="M402.3,190.6c-0.3,0-0.5,0-0.8,0c-4.7-0.4-8.1-4.6-7.7-9.3c1.2-12.6,5.9-24.7,13.6-34.8
				c2.9-3.8,8.2-4.5,12-1.6c3.8,2.9,4.5,8.2,1.6,12c-5.8,7.6-9.3,16.6-10.2,26.1C410.4,187.2,406.7,190.6,402.3,190.6L402.3,190.6z"
				/>
			<path id="Shape_10_" class="st3" d="M402.1,251.7c-4.7,0-8.5-3.8-8.5-8.5V217c0-4.7,3.8-8.5,8.5-8.5s8.5,3.8,8.5,8.5v26.2
				C410.6,247.9,406.8,251.7,402.1,251.7z"/>
			<path id="Shape_11_" class="st3" d="M402.1,313.5c-4.7,0-8.5-3.8-8.5-8.5v-26.2c0-4.7,3.8-8.5,8.5-8.5s8.5,3.8,8.5,8.5V305
				C410.6,309.7,406.8,313.5,402.1,313.5z"/>
			<path id="Shape_12_" class="st3" d="M392.1,374.4c-3.1,0-6-1.7-7.5-4.5c-1.5-2.8-1.3-6.1,0.4-8.7c4.2-6.3,7-13.5,8-21
				c0.4-3,2.4-5.6,5.3-6.7c2.8-1.1,6.1-0.7,8.5,1.2c2.4,1.9,3.6,4.9,3.2,7.9c-1.4,10-5.1,19.6-10.7,28
				C397.6,373,394.9,374.4,392.1,374.4L392.1,374.4z"/>
			<path id="Shape_13_" class="st3" d="M342.3,401.1c-4.6,0-9.3-0.5-13.8-1.4c-4.5-1-7.4-5.5-6.5-10c0.9-4.5,5.3-7.5,9.9-6.7
				c10.4,2.1,21.2,1,31-3.2c2.8-1.2,6-0.9,8.5,0.9c2.5,1.8,3.8,4.8,3.4,7.8c-0.3,3-2.3,5.7-5.1,6.9
				C361.1,399.1,351.8,401.1,342.3,401.1z"/>
			<path id="Shape_14_" class="st3" d="M299.9,383.4c-2.3,0-4.5-0.9-6.1-2.6c-8.9-9-15.1-20.2-18-32.5c-0.8-3,0.1-6.2,2.4-8.4
				c2.3-2.2,5.5-2.9,8.5-2c3,0.9,5.2,3.4,5.8,6.5c2.2,9.2,6.8,17.7,13.5,24.4c2.4,2.5,3.1,6.1,1.8,9.3
				C306.4,381.2,303.3,383.3,299.9,383.4L299.9,383.4z"/>
			<path id="Shape_15_" class="st3" d="M282.6,318.9c-4.7,0-8.5-3.8-8.5-8.5v-28.7c0-4.7,3.8-8.5,8.5-8.5s8.5,3.8,8.5,8.5v28.7
				C291.1,315,287.3,318.9,282.6,318.9z"/>
			<path id="Shape_16_" class="st3" d="M282.6,255.5c-4.7,0-8.5-3.8-8.5-8.5V222c0-4.7,3.8-8.5,8.5-8.5s8.5,3.8,8.5,8.5v24.9
				C291.1,251.7,287.3,255.5,282.6,255.5z"/>
			<path id="Shape_17_" class="st3" d="M282.6,194.8c-4.7,0-8.5-3.8-8.5-8.5v-7.1c0-7.7-1.7-15.4-5.1-22.3c-2.1-4.2-0.3-9.3,4-11.4
				c4.2-2.1,9.3-0.3,11.4,4c4.5,9.3,6.9,19.5,6.8,29.8v7.1C291.1,191,287.3,194.8,282.6,194.8L282.6,194.8z"/>
			<path id="Shape_18_" class="st3" d="M251.1,135.1c-1.4,0-2.8-0.3-4-1c-8.4-4.5-17.9-6.6-27.5-6c-4.7,0.2-8.7-3.3-9-8
				c-0.3-4.7,3.3-8.7,8-9c12.7-0.7,25.3,2,36.6,8c3.4,1.9,5.2,5.8,4.2,9.6C258.4,132.4,255,135.1,251.1,135.1z"/>
			<path id="Shape_19_" class="st3" d="M166.8,167c-2.8,0-5.4-1.4-7-3.7c-1.6-2.3-2-5.2-1-7.8c4.3-11.7,11.8-22,21.5-29.7
				c3.7-2.9,9.1-2.3,12,1.4c2.9,3.7,2.3,9.1-1.4,12c-7.3,5.8-12.9,13.5-16.1,22.3C173.6,164.8,170.4,167,166.8,167L166.8,167z"/>
			<path id="Shape_20_" class="st3" d="M163.1,238.8c-4.7,0-8.5-3.8-8.5-8.5v-34c0-4.7,3.8-8.5,8.5-8.5s8.5,3.8,8.5,8.5v34
				C171.7,235,167.8,238.8,163.1,238.8z"/>
			<path id="Shape_21_" class="st3" d="M163.1,307.6c-4.7,0-8.5-3.8-8.5-8.5v-34c0-4.7,3.8-8.5,8.5-8.5s8.5,3.8,8.5,8.5v34
				C171.7,303.8,167.8,307.6,163.1,307.6z"/>
			<path id="Shape_2_" class="st3" d="M166.1,281c0-4.7,3.8-8.5,8.5-8.5h34c4.7,0,8.5,3.8,8.5,8.5s-3.8,8.5-8.5,8.5h-34
				C169.9,289.5,166.1,285.7,166.1,281z"/>
			<path id="Shape_22_" class="st3" d="M159.5,378.9c-1,0-2-0.2-2.9-0.5c-2.1-0.8-3.9-2.4-4.8-4.4s-1-4.4-0.3-6.5
				c2.1-5.6,3.1-11.6,3.1-17.6v-12.8c0-4.7,3.8-8.5,8.5-8.5s8.5,3.8,8.5,8.5v12.8c0,8-1.4,15.9-4.1,23.4
				C166.3,376.7,163.1,378.9,159.5,378.9L159.5,378.9z"/>
			<path id="Shape_23_" class="st3" d="M106,418.1c-4.7,0.1-8.6-3.6-8.7-8.4c-0.1-4.7,3.6-8.6,8.4-8.7c9.9-0.4,19.4-3.7,27.5-9.4
				c3.8-2.7,9.1-1.7,11.8,2.1c2.7,3.8,1.9,9.1-1.9,11.8c-10.8,7.7-23.5,12-36.7,12.6L106,418.1z"/>
			<path id="Shape_24_" class="st3" d="M72.6,409.6c-1.6,0-3.1-0.4-4.4-1.2c-9.6-5.8-17.6-13.8-23.3-23.3c-1.7-2.6-1.9-6-0.4-8.7
				s4.3-4.5,7.5-4.5s6,1.7,7.5,4.4c4.3,7.2,10.3,13.2,17.5,17.5c3.3,2,4.8,5.9,3.8,9.6S76.4,409.6,72.6,409.6z"/>
			<path id="Shape_25_" class="st3" d="M43.7,349.9c-4.7,0-8.5-3.8-8.5-8.5v-25.6c0-4.7,3.8-8.5,8.5-8.5s8.5,3.8,8.5,8.5v25.6
				C52.2,346,48.4,349.9,43.7,349.9z"/>
		</g>
		<path id="Shape_6_" class="st0" d="M484.3,89.8c0,19.6-26.2,39.3-26.2,39.3s-26.2-19.6-26.2-39.3c0-14.5,11.7-26.2,26.2-26.2
			C472.6,63.6,484.3,75.3,484.3,89.8z"/>
		<circle id="Oval" class="st3" cx="458.1" cy="89.8" r="6.5"/>
	</g>
</g>
<g>
	<path class="st1" d="M60.3,251.5l-8.7-8.8c-0.4-0.4-0.4-1.1,0-1.6c0.4-0.4,1.1-0.4,1.6,0l10.4,10.4L60.3,251.5z"/>
	<path class="st4" d="M43.9,251.8c-0.6,0-1.1-0.5-1.1-1.1v-4.4c0-0.6,0.5-1.1,1.1-1.1c0.6,0,1.1,0.5,1.1,1.1v4.4
		C45,251.3,44.5,251.8,43.9,251.8L43.9,251.8z"/>
	<path class="st5" d="M78.1,261.1h-4.4c-1.2,0-2.2-1-2.2-2.2c0-1.2,1-2.2,2.2-2.2h3.1C77.6,258,78.1,259.5,78.1,261.1z"/>
	<path class="st3" d="M58.3,257.1c4.3,0,7.7,3.5,7.7,7.7c0,4.3-3.5,7.7-7.7,7.7s-7.7-3.5-7.7-7.7C50.6,260.5,54,257.1,58.3,257.1
		L58.3,257.1z M59.4,264.8c0-0.6-0.5-1.1-1.1-1.1c-0.6,0-1.1,0.5-1.1,1.1s0.5,1.1,1.1,1.1C58.9,265.9,59.4,265.4,59.4,264.8z"/>
	<path class="st3" d="M26.3,257.1c4.3,0,7.7,3.5,7.7,7.7c0,4.3-3.5,7.7-7.7,7.7c-4.4,0-7.8-3.7-7.7-7.8
		C18.7,260.5,22.1,257.1,26.3,257.1L26.3,257.1z M27.4,264.8c0-0.6-0.5-1.1-1.1-1.1s-1.1,0.5-1.1,1.1s0.5,1.1,1.1,1.1
		S27.4,265.4,27.4,264.8z"/>
	<path class="st6" d="M78.1,261.1h-4.4c-1.2,0-2.2-1-2.2-2.2c0-1.2,1-2.2,2.2-2.2h3.1c-1.5-2.5-3.9-4-6.5-4.4l-9.4-1.5H30.1
		l-3.1-5.5c-0.6-1-1.8-1.4-2.8-0.9l-9.9,4.4c-2.7,1.2-4.5,3.9-4.5,6.8c0,2.4,0,2.9,0,5.8c0,1.8,1.5,3.3,3.3,3.3h5.5
		c0-4.2,3.5-7.6,7.7-7.6c4.3,0,7.7,3.5,7.7,7.7h16.5c0-4.3,3.5-7.7,7.7-7.7c4.3,0,7.7,3.5,7.7,7.7h8.9c1.8,0,3.3-1.5,3.3-3.3
		C78.1,261.4,78.1,261.3,78.1,261.1z"/>
	<path class="st7" d="M30.1,250.7c-3.8-0.1-7.3-1.8-9.6-4.8l3.6-1.6c1-0.5,2.2-0.1,2.8,0.9L30.1,250.7z"/>
	<g>
		<path class="st0" d="M20,260.3c-0.9,1.2-1.4,2.7-1.4,4.4H13c-1.8,0-3.3-1.5-3.3-3.3c0-6-0.1-6.7,0.5-8.4
			C12.8,256.8,16.1,259.1,20,260.3z"/>
		<path class="st0" d="M33.1,261.1h18.5c-0.6,1.1-1,2.4-1,3.7H34C34,263.4,33.7,262.2,33.1,261.1L33.1,261.1z"/>
		<path class="st0" d="M78.1,261.5c0,1.8-1.5,3.3-3.3,3.3H66c0-1.4-0.3-2.6-1-3.7h13.1C78.1,261.3,78.1,261.4,78.1,261.5L78.1,261.5
			z"/>
	</g>
	<path class="st8" d="M39.8,257.3h-2.2c-0.6,0-1.1-0.5-1.1-1.1c0-0.6,0.5-1.1,1.1-1.1h2.2c0.6,0,1.1,0.5,1.1,1.1
		C40.9,256.8,40.4,257.3,39.8,257.3z"/>
	<path class="st4" d="M26.3,267c-1.2,0-2.2-1-2.2-2.2s1-2.2,2.2-2.2c1.2,0,2.2,1,2.2,2.2S27.5,267,26.3,267z M26.3,264.8L26.3,264.8
		L26.3,264.8z"/>
	<path class="st4" d="M58.3,267c-1.2,0-2.2-1-2.2-2.2s1-2.2,2.2-2.2c1.2,0,2.2,1,2.2,2.2S59.5,267,58.3,267z M58.3,264.8L58.3,264.8
		L58.3,264.8z"/>
	<path class="st9" d="M15.3,254.9c0,0.6-0.5,1.1-1.1,1.1H9.7c0-0.7,0-1.3,0.2-2.2h4.2C14.8,253.8,15.3,254.3,15.3,254.9z"/>
	<path class="st8" d="M14.2,259.3c0,0.6-0.5,1.1-1.1,1.1H9.7v-2.2H13C13.7,258.2,14.2,258.7,14.2,259.3z"/>
</g>
</svg>
