<svg id="Layer_1" enable-background="new 0 0 496.105 496.105" height="512" viewBox="0 0 496.105 496.105" width="512" xmlns="http://www.w3.org/2000/svg"><path d="m367.018 210.319-63.39-63.62c-3.118-3.13-3.109-8.195.021-11.313 3.128-3.12 8.195-3.109 11.313.021l75.537 75.646z" fill="#ade4f9"/><path d="m248.105 213.053c-4.418 0-8-3.582-8-8v-32c0-4.418 3.582-8 8-8s8 3.582 8 8v32c0 4.418-3.582 8-8 8z" fill="#292d31"/><path d="m496.055 280.053h-31.92c-8.8 0-15.94-7.16-15.94-16 0-8.775 7.068-16 15.94-16h22.445c5.67 9.47 9.045 20.4 9.475 32z" fill="#fee8b4"/><path d="m352.105 251.053c30.93 0 56 25.07 56 56s-25.07 56-56 56-56-25.07-56-56 25.07-56 56-56zm8 56c0-4.42-3.58-8-8-8s-8 3.58-8 8 3.58 8 8 8 8-3.58 8-8z" fill="#414754"/><path d="m120.105 251.053c30.93 0 56 25.07 56 56s-25.07 56-56 56c-31.888 0-56.825-26.6-55.99-56.84.845-30.611 25.29-55.16 55.99-55.16zm8 56c0-4.42-3.58-8-8-8s-8 3.58-8 8 3.58 8 8 8 8-3.58 8-8z" fill="#414754"/><path d="m496.055 280.053h-31.92c-8.8 0-15.94-7.16-15.94-16 0-8.8 7.09-16 15.94-16h22.445c-10.958-18.114-28.395-29.077-47.325-32.12l-67.83-10.88h-223.32l-22.827-39.566c-4.081-7.073-12.836-9.938-20.309-6.647l-71.974 31.693c-19.68 8.67-32.812 27.99-32.887 49.49-.062 17.667 0 21.064 0 42.05 0 13.17 10.617 24.04 23.787 24.14h40.22c.352-30.57 25.251-55.16 55.99-55.16 30.947 0 56 25.092 56 56h120c0-30.91 25.055-56 56-56 30.947 0 56 25.092 56 56h64.18c13.15 0 23.82-10.71 23.82-23.91 0-1 0-1.684-.05-3.09z" fill="#71a2e6"/><path d="m148.105 205.053c-27.638-.692-52.944-12.827-69.36-34.67l26.224-11.543c7.474-3.294 16.228-.428 20.309 6.647z" fill="#aac7f0"/><g fill="#497fbc"><path d="m74.465 274.603c-6.4 8.99-10.22 19.79-10.35 31.61h-40.22c-13.17-.1-23.787-10.97-23.787-24.14 0-43.551-1.059-48.659 3.467-60.6 18.546 27.286 42.459 44.58 70.89 53.13z"/><path d="m169.185 280.053h133.84c-4.41 8.01-6.92 17.21-6.92 27h-120c0-9.79-2.51-18.99-6.92-27z"/><path d="m496.105 283.143c0 13.2-10.67 23.91-23.82 23.91h-64.18c0-9.79-2.51-18.99-6.92-27h94.87c.05 1.41.05 2.09.05 3.09z"/></g><path d="m218.105 253.053h-16c-4.418 0-8-3.582-8-8s3.582-8 8-8h16c4.418 0 8 3.582 8 8s-3.582 8-8 8z" fill="#fff"/><path d="m120.105 323.053c-8.822 0-16-7.178-16-16s7.178-16 16-16 16 7.178 16 16-7.178 16-16 16zm0-16.011v.011z" fill="#292d31"/><path d="m352.105 323.053c-8.822 0-16-7.178-16-16s7.178-16 16-16 16 7.178 16 16-7.178 16-16 16zm0-16.011v.011z" fill="#292d31"/><path d="m40.109 235.053c0 4.42-3.59 7.97-8 7.97h-32.001c0-5.346.05-9.576 1.702-15.97h30.3c4.409 0 7.999 3.58 7.999 8z" fill="#e05a7f"/><path d="m32.109 267.053c0 4.42-3.59 7.97-8 7.97h-24v-15.94h24c4.41 0 8 3.55 8 7.97z" fill="#fff"/></svg>